<svg height="512" viewBox="0 0 58 58" width="512" xmlns="http://www.w3.org/2000/svg"><g id="Page-1" fill="none" fill-rule="evenodd"><g id="066---Zoom" fill-rule="nonzero"><path id="Shape" d="m40.61 37.78 4.21 4.21.18 3.01-3.01-.18-4.21-4.21.22-2.61z" fill="#7f8c8d"/><circle id="Oval" cx="23" cy="23" fill="#3f5c6c" r="23"/><circle id="Oval" cx="23" cy="23" fill="#35495e" r="21"/><path id="Shape" d="m42 23c.0014469 9.0508099-6.3831933 16.8455284-15.2570258 18.6266125-8.8738324 1.7810841-17.77179477-2.9462335-21.2629742-11.2966125-.98353637-2.3182351-1.48700485-4.8117648-1.48-7.33 0-10.4934102 8.5065898-19 19-19s19 8.5065898 19 19z" fill="#2fa8cc"/><path id="Shape" d="m38 17c.0059439 7.709931-4.651196 14.657889-11.7850729 17.5820765-7.1338768 2.9241876-15.3277555 1.2438827-20.7349271-4.2520765-.98353637-2.3182351-1.48700485-4.8117648-1.48-7.33-.00594394-7.709931 4.65119601-14.657889 11.7850729-17.58207653 7.1338768-2.92418754 15.3277555-1.24388265 20.7349271 4.25207653.9835364 2.3182351 1.4870048 4.8117648 1.48 7.33z" fill="#67b9cc"/><path id="Shape" d="m57.12 55.71-1.41 1.41c-1.1751514 1.1698661-3.0748486 1.1698661-4.25 0l-10.18-10.18c-.3877236-.3900375-.3877236-1.0199625 0-1.41l4.25-4.25c.3900375-.3877236 1.0199625-.3877236 1.41 0l1.41 1.42h.01l1.41 1.41 5.23 5.23 1.41 1.41v.01l.71.7c1.1698661 1.1751514 1.1698661 3.0748486 0 4.25z" fill="#f0c419"/><path id="Shape" d="m49.77 44.11-2.83 2.83c-.190164.1849909-.4447023.2889572-.71.29-.2623399-.0011046-.5137394-.1052558-.7-.29-.191781-.1843911-.3001659-.4389549-.3001659-.705s.1083849-.5206089.3001659-.705l2.82-2.83h.01z" fill="#f29c1f"/><path id="Shape" d="m56.41 50.75v.01l-2.82 2.83c-.1911916.1834154-.4450715.2871128-.71.29-.2652977-.0010428-.519836-.1050091-.71-.29-.3899779-.3930079-.3899779-1.0269921 0-1.42l2.83-2.83z" fill="#f29c1f"/><path id="Shape" d="m31.893 21h-5.893c-.5522847 0-1-.4477153-1-1v-5.893c.0222852-1.0048321-.6787841-1.8811688-1.664-2.08-.5810531-.0990245-1.1761996.063304-1.6265064.4436359s-.7099139.9399335-.7094936 1.5293641v6c0 .5522847-.4477153 1-1 1h-5.893c-1.0048321-.0222852-1.8811688.6787841-2.08 1.664-.0990245.5810531.063304 1.1761996.4436359 1.6265064s.9399335.7099139 1.5293641.7094936h6c.5522847 0 1 .4477153 1 1v5.893c-.0222852 1.0048321.6787841 1.8811688 1.664 2.08.5810531.0990245 1.1761996-.063304 1.6265064-.4436359s.7099139-.9399335.7094936-1.5293641v-6c0-.5522847.4477153-1 1-1h6c.5894306.0004203 1.1490322-.2591868 1.5293641-.7094936s.5426604-1.0454533.4436359-1.6265064c-.1988312-.9852159-1.0751679-1.6862852-2.08-1.664z" fill="#f0c419"/></g></g></svg>